<svg width="42" height="42" viewBox="0 0 42 42" fill="none" xmlns="http://www.w3.org/2000/svg">
<path d="M19.25 7.00003H7C6.07174 7.00003 5.1815 7.36878 4.52513 8.02516C3.86875 8.68153 3.5 9.57177 3.5 10.5V35C3.5 35.9283 3.86875 36.8185 4.52513 37.4749C5.1815 38.1313 6.07174 38.5 7 38.5H31.5C32.4283 38.5 33.3185 38.1313 33.9749 37.4749C34.6313 36.8185 35 35.9283 35 35V22.75M32.375 4.37503C33.0712 3.67884 34.0154 3.28772 35 3.28772C35.9846 3.28772 36.9288 3.67884 37.625 4.37503C38.3212 5.07122 38.7123 6.01546 38.7123 7.00003C38.7123 7.9846 38.3212 8.92884 37.625 9.62503L21 26.25L14 28L15.75 21L32.375 4.37503Z" stroke="white" stroke-width="4" stroke-linecap="round" stroke-linejoin="round"/>
</svg>
