<?xml version="1.0" encoding="UTF-8"?>
<!DOCTYPE svg PUBLIC "-//W3C//DTD SVG 1.1//EN" "http://www.w3.org/Graphics/SVG/1.1/DTD/svg11.dtd">
<svg xmlns="http://www.w3.org/2000/svg" version="1.1" width="512px" height="512px" style="shape-rendering:geometricPrecision; text-rendering:geometricPrecision; image-rendering:optimizeQuality; fill-rule:evenodd; clip-rule:evenodd" xmlns:xlink="http://www.w3.org/1999/xlink">
<g><path style="opacity:0.982" fill="#FFFFFF" d="M 343.5,15.5 C 381.501,15.3333 419.501,15.5 457.5,16C 477.333,21.1667 489.833,33.6667 495,53.5C 495.667,91.5 495.667,129.5 495,167.5C 488.645,186.438 475.478,194.272 455.5,191C 443,187.833 435.167,180 432,167.5C 431.667,153.833 431.333,140.167 431,126.5C 379.5,178 328,229.5 276.5,281C 262.658,291.488 248.325,292.155 233.5,283C 221.512,272.021 218.345,258.854 224,243.5C 225.667,240.833 227.333,238.167 229,235.5C 280.833,183.667 332.667,131.833 384.5,80C 370.833,79.6667 357.167,79.3333 343.5,79C 324.562,72.6446 316.728,59.478 320,39.5C 323.349,26.9853 331.182,18.9853 343.5,15.5 Z"/></g>
<g><path style="opacity:0.997" fill="#FFFFFF" d="M 53.5,47.5 C 123.501,47.3333 193.501,47.5 263.5,48C 273.31,50.6465 280.477,56.4798 285,65.5C 290.305,79.9517 287.805,92.785 277.5,104C 273.391,107.388 268.725,109.721 263.5,111C 202.168,111.5 140.834,111.667 79.5,111.5C 79.5,218.167 79.5,324.833 79.5,431.5C 186.167,431.5 292.833,431.5 399.5,431.5C 399.333,370.166 399.5,308.832 400,247.5C 406.355,228.562 419.522,220.728 439.5,224C 452,227.167 459.833,235 463,247.5C 463.667,317.5 463.667,387.5 463,457.5C 457.833,477.333 445.333,489.833 425.5,495C 301.5,495.667 177.5,495.667 53.5,495C 33.6667,489.833 21.1667,477.333 16,457.5C 15.3333,333.5 15.3333,209.5 16,85.5C 21.3488,65.6518 33.8488,52.9852 53.5,47.5 Z"/></g>
</svg>
